# xmcd
# 
# Track frame offsets:
#     150
#     21221
#     38045
#     55013
#     69501
#     89052
#     113637
#     128485
#     143601
#     163844
#     181357
# 
# Disc length: 2502
# 
# Revision: 0
# Processed by: cddbd v1.5.2PL0 Copyright (c) Steve Scherf et al.
# Submitted via: fre:ac v1.0.31
# 
DISCID=8e09c40b
DTITLE=Edie Carey - Another Kind Of Fire
DYEAR=2006
DGENRE=Folk
TTITLE0=Hollywood Ending
TTITLE1=The Night
TTITLE2=Lonely
TTITLE3=Bonfire
TTITLE4=Another Kind Of Fire
TTITLE5=One Shot Deal
TTITLE6=Save You Now
TTITLE7=My Heart
TTITLE8=Without A Fight
TTITLE9=What Love Looks Like
TTITLE10=Hollywood Ending (Reprise)
EXTD=
EXTT0=
EXTT1=
EXTT2=
EXTT3=
EXTT4=
EXTT5=
EXTT6=
EXTT7=
EXTT8=
EXTT9=
EXTT10=
PLAYORDER=
